<svg width="27" height="27" viewBox="0 0 27 27" fill="none" xmlns="http://www.w3.org/2000/svg">
<g clip-path="url(#clip0_1436_1906)">
<path d="M0.577383 13.3383C0.57675 15.6069 1.17412 17.8219 2.31002 19.7743L0.46875 26.445L7.34869 24.655C9.2516 25.6829 11.3837 26.2215 13.5503 26.2216H13.5559C20.7083 26.2216 26.5305 20.4467 26.5336 13.3485C26.5349 9.90891 25.1862 6.67456 22.7357 4.24122C20.2857 1.80808 17.0272 0.46739 13.5554 0.46582C6.40221 0.46582 0.580441 6.24047 0.577488 13.3383" fill="url(#paint0_linear_1436_1906)"/>
<path d="M0.112852 13.3342C0.112113 15.6844 0.730898 17.9787 1.9073 20.0009L0 26.9107L7.12663 25.0566C9.09025 26.1189 11.3011 26.679 13.5507 26.6799H13.5565C20.9655 26.6799 26.9968 20.6972 27 13.3449C27.0013 9.78174 25.604 6.43113 23.066 3.9106C20.5277 1.3904 17.1527 0.00146512 13.5565 0C6.1463 0 0.115805 5.98186 0.112852 13.3342ZM4.35702 19.6527L4.09092 19.2335C2.97232 17.4687 2.38191 15.4292 2.38275 13.3351C2.38507 7.22397 7.39737 2.25209 13.5608 2.25209C16.5455 2.25335 19.3506 3.40786 21.4604 5.50256C23.5701 7.59747 24.7309 10.3822 24.7302 13.3441C24.7275 19.4552 19.7151 24.4277 13.5565 24.4277H13.5521C11.5468 24.4266 9.58015 23.8923 7.86502 22.8825L7.45685 22.6423L3.22777 23.7425L4.35702 19.6527Z" fill="url(#paint1_linear_1436_1906)"/>
<path d="M10.1975 7.75943C9.94589 7.20447 9.68106 7.19327 9.44175 7.18354C9.24579 7.17516 9.02177 7.17579 8.79797 7.17579C8.57395 7.17579 8.20998 7.25941 7.90233 7.59272C7.59436 7.92635 6.72656 8.73258 6.72656 10.3724C6.72656 12.0121 7.93028 13.597 8.09808 13.8196C8.26609 14.0417 10.4219 17.5145 13.8361 18.8505C16.6736 19.9607 17.2511 19.7399 17.8669 19.6842C18.4828 19.6288 19.8544 18.8782 20.1342 18.0999C20.4142 17.3217 20.4142 16.6547 20.3302 16.5153C20.2463 16.3764 20.0223 16.293 19.6864 16.1264C19.3504 15.9598 17.6989 15.1534 17.391 15.0421C17.0831 14.931 16.8592 14.8755 16.6351 15.2092C16.4111 15.5424 15.7679 16.293 15.5718 16.5153C15.3759 16.7381 15.1799 16.7658 14.8441 16.5991C14.5079 16.4319 13.4261 16.0803 12.1427 14.945C11.1441 14.0615 10.47 12.9705 10.274 12.6368C10.078 12.3036 10.253 12.123 10.4214 11.9569C10.5724 11.8075 10.7575 11.5677 10.9256 11.3731C11.0931 11.1785 11.149 11.0396 11.261 10.8173C11.3731 10.5949 11.317 10.4002 11.2331 10.2335C11.149 10.0668 10.4962 8.41842 10.1975 7.75943Z" fill="white"/>
</g>
<defs>
<linearGradient id="paint0_linear_1436_1906" x1="1303.71" y1="2598.38" x2="1303.71" y2="0.46582" gradientUnits="userSpaceOnUse">
<stop stop-color="#1FAF38"/>
<stop offset="1" stop-color="#60D669"/>
</linearGradient>
<linearGradient id="paint1_linear_1436_1906" x1="1350" y1="2691.07" x2="1350" y2="0" gradientUnits="userSpaceOnUse">
<stop stop-color="#F9F9F9"/>
<stop offset="1" stop-color="white"/>
</linearGradient>
<clipPath id="clip0_1436_1906">
<rect width="27" height="27" fill="white"/>
</clipPath>
</defs>
</svg>
